<?xml version="1.0" standalone="no"?><svg xmlns="http://www.w3.org/2000/svg" viewBox="0 0 1440 320"><path fill="#a63feb" fill-opacity="1" d="M0,160L30,160C60,160,120,160,180,165.3C240,171,300,181,360,181.3C420,181,480,171,540,160C600,149,660,139,720,133.3C780,128,840,128,900,112C960,96,1020,64,1080,53.3C1140,43,1200,53,1260,58.7C1320,64,1380,64,1410,64L1440,64L1440,320L1410,320C1380,320,1320,320,1260,320C1200,320,1140,320,1080,320C1020,320,960,320,900,320C840,320,780,320,720,320C660,320,600,320,540,320C480,320,420,320,360,320C300,320,240,320,180,320C120,320,60,320,30,320L0,320Z"></path></svg>